<?xml version="1.0" standalone="no"?>
<!DOCTYPE svg PUBLIC "-//W3C//DTD SVG 20010904//EN"
 "http://www.w3.org/TR/2001/REC-SVG-20010904/DTD/svg10.dtd">
<svg version="1.0" xmlns="http://www.w3.org/2000/svg"
 width="512.000000pt" height="512.000000pt" viewBox="0 0 512.000000 512.000000"
 preserveAspectRatio="xMidYMid meet">

<g transform="translate(0.000000,512.000000) scale(0.100000,-0.100000)"
fill="#000000" stroke="none">
<path d="M306 4549 c-62 -15 -153 -68 -197 -116 -22 -24 -55 -74 -72 -111
l-32 -67 0 -1696 0 -1695 37 -76 c45 -91 103 -147 196 -191 l67 -32 2256 0
2255 0 76 37 c91 45 147 103 191 196 l32 67 3 1447 2 1448 -1317 2 -1318 3
-48 28 c-37 22 -98 91 -287 325 -135 169 -258 311 -283 329 -60 45 -161 89
-232 102 -72 14 -1271 13 -1329 0z"/>
<path d="M2207 4308 c179 -228 287 -360 305 -372 20 -14 151 -16 1317 -16
l1294 0 -7 53 c-9 70 -55 166 -107 221 -26 29 -70 60 -117 84 l-76 37 -1309 3
c-1057 2 -1308 0 -1300 -10z"/>
</g>
</svg>
